<svg width="1200" height="800" viewBox="0 0 1200 800" xmlns="http://www.w3.org/2000/svg">
  <defs>
    <linearGradient id="bg-assessly" x1="0%" y1="0%" x2="100%" y2="100%">
      <stop offset="0%" stop-color="#0a0c0d"/>
      <stop offset="100%" stop-color="#161a1b"/>
    </linearGradient>
    <linearGradient id="accent-assessly" x1="0%" y1="0%" x2="100%" y2="100%">
      <stop offset="0%" stop-color="#f5b94d" stop-opacity="0.9"/>
      <stop offset="100%" stop-color="#f5b94d" stop-opacity="0.2"/>
    </linearGradient>
  </defs>
  <rect width="1200" height="800" fill="url(#bg-assessly)"/>
  <g stroke="#ffffff" stroke-opacity="0.045" stroke-width="1">
    <line x1="0" y1="160" x2="1200" y2="160"/>
    <line x1="0" y1="320" x2="1200" y2="320"/>
    <line x1="0" y1="480" x2="1200" y2="480"/>
    <line x1="0" y1="640" x2="1200" y2="640"/>
    <line x1="240" y1="0" x2="240" y2="800"/>
    <line x1="480" y1="0" x2="480" y2="800"/>
    <line x1="720" y1="0" x2="720" y2="800"/>
    <line x1="960" y1="0" x2="960" y2="800"/>
  </g>

  <!-- browser chrome -->
  <rect x="120" y="140" width="960" height="560" rx="14" fill="#101314" stroke="#f5b94d" stroke-opacity="0.35" stroke-width="1.5"/>
  <rect x="120" y="140" width="960" height="48" rx="14" fill="#181c1d"/>
  <circle cx="150" cy="164" r="6" fill="#ff6b6b" opacity="0.7"/>
  <circle cx="172" cy="164" r="6" fill="#f5b94d" opacity="0.7"/>
  <circle cx="194" cy="164" r="6" fill="#f5b94d" opacity="0.8"/>

  <!-- sidebar -->
  <rect x="140" y="208" width="180" height="470" rx="10" fill="#15191a"/>
  <rect x="160" y="232" width="140" height="14" rx="4" fill="#f5b94d" opacity="0.5"/>
  <rect x="160" y="268" width="100" height="10" rx="3" fill="#ffffff" opacity="0.12"/>
  <rect x="160" y="296" width="120" height="10" rx="3" fill="#ffffff" opacity="0.08"/>
  <rect x="160" y="324" width="90" height="10" rx="3" fill="#ffffff" opacity="0.08"/>
  <rect x="160" y="352" width="110" height="10" rx="3" fill="#ffffff" opacity="0.08"/>

  <!-- main panel cards -->
  <rect x="344" y="208" width="736" height="130" rx="10" fill="#15191a"/>
  <rect x="368" y="232" width="160" height="16" rx="4" fill="url(#accent-assessly)"/>
  <rect x="368" y="262" width="280" height="10" rx="3" fill="#ffffff" opacity="0.1"/>
  <rect x="368" y="282" width="220" height="10" rx="3" fill="#ffffff" opacity="0.07"/>
  <rect x="780" y="232" width="60" height="60" rx="30" fill="#f5b94d" opacity="0.18"/>

  <rect x="344" y="354" width="356" height="324" rx="10" fill="#15191a"/>
  <rect x="716" y="354" width="364" height="324" rx="10" fill="#15191a"/>

  <rect x="368" y="378" width="120" height="12" rx="3" fill="#ffffff" opacity="0.12"/>
  <polyline points="368,640 410,580 452,610 494,520 536,560 578,490 620,540" fill="none" stroke="#f5b94d" stroke-width="3" stroke-opacity="0.8" stroke-linecap="round" stroke-linejoin="round"/>

  <rect x="740" y="378" width="120" height="12" rx="3" fill="#ffffff" opacity="0.12"/>
  <rect x="740" y="420" width="60" height="200" rx="6" fill="#f5b94d" opacity="0.55"/>
  <rect x="816" y="470" width="60" height="150" rx="6" fill="#ffffff" opacity="0.1"/>
  <rect x="892" y="440" width="60" height="180" rx="6" fill="#f5b94d" opacity="0.3"/>
  <rect x="968" y="500" width="60" height="120" rx="6" fill="#ffffff" opacity="0.08"/>

  <text x="600" y="770" font-family="monospace" font-size="22" fill="#f5b94d" fill-opacity="0.75" text-anchor="middle" letter-spacing="2">Assessly</text>
</svg>